<svg xmlns="http://www.w3.org/2000/svg" width="37" height="37" viewBox="0 0 37 37" fill="none">
    <path d="M32.3564 9.45685L30.5993 19.1205C30.4543 19.9199 30.0332 20.643 29.4095 21.1636C28.7857 21.6841 27.999 21.9691 27.1866 21.9688H10.4252L11.0559 25.4375H26.5938C27.3306 25.4371 28.0484 25.6713 28.6432 26.1061C29.2381 26.5408 29.6791 27.1537 29.9025 27.8558C30.1259 28.5579 30.12 29.3129 29.8857 30.0115C29.6514 30.7101 29.2009 31.3159 28.5993 31.7414C27.9977 32.1668 27.2763 32.3898 26.5396 32.3779C25.8029 32.3661 25.0891 32.12 24.5015 31.6755C23.9139 31.2309 23.4831 30.6109 23.2714 29.9051C23.0596 29.1994 23.078 28.4446 23.3239 27.75H14.8324C15.0361 28.3241 15.0851 28.9418 14.9743 29.5408C14.8636 30.1399 14.5971 30.6992 14.2016 31.1625C13.8061 31.6259 13.2955 31.9769 12.7213 32.1803C12.1471 32.3837 11.5294 32.4324 10.9304 32.3213C10.3314 32.2102 9.77227 31.9434 9.30915 31.5476C8.84602 31.1518 8.49528 30.6411 8.29219 30.0667C8.08911 29.4924 8.04084 28.8747 8.15225 28.2758C8.26366 27.6769 8.53082 27.1178 8.92685 26.6549L4.9214 4.625H2.3125C2.00584 4.625 1.71175 4.50318 1.49491 4.28634C1.27807 4.0695 1.15625 3.77541 1.15625 3.46875C1.15625 3.16209 1.27807 2.868 1.49491 2.65116C1.71175 2.43432 2.00584 2.3125 2.3125 2.3125H4.9214C5.46304 2.31226 5.98756 2.50225 6.4034 2.8493C6.81924 3.19636 7.09999 3.67843 7.19664 4.21138L7.9025 8.09375H31.2188C31.3881 8.09377 31.5554 8.13098 31.7088 8.20277C31.8622 8.27455 31.9979 8.37915 32.1064 8.50917C32.2149 8.63919 32.2936 8.79146 32.3368 8.95522C32.38 9.11898 32.3866 9.29022 32.3564 9.45685Z" fill="white"/>
</svg>