<svg xmlns="http://www.w3.org/2000/svg" width="30" height="29" viewBox="0 0 30 29" fill="none">
    <g clip-path="url(#clip0_1_126)">
        <path fill-rule="evenodd" clip-rule="evenodd" d="M8.80448 0.177957C6.36266 0.28446 4.24622 0.861555 2.53724 2.50659C0.822292 4.16028 0.232712 6.21427 0.122263 8.55015C0.0536046 10.0081 -0.347871 21.0225 0.816324 23.9111C1.60141 25.8598 3.14766 27.3581 5.18202 28.1195C6.13128 28.4764 7.21491 28.718 8.80448 28.7886C22.0957 29.37 27.0226 29.0535 29.1003 23.9111C29.4689 22.9957 29.7227 21.9491 29.7928 20.4164C30.4003 7.53523 29.6943 4.74316 27.3779 2.50659C25.5405 0.734898 23.3793 -0.471135 8.80448 0.177957ZM8.92684 26.198C7.4716 26.1346 6.68205 25.9002 6.15518 25.7031C4.82978 25.2051 3.83425 24.2467 3.32231 22.973C2.43573 20.7781 2.72977 10.3538 2.80888 8.66697C2.88649 7.01472 3.23276 5.50469 4.43875 4.33892C5.9313 2.89968 7.85967 2.19432 20.9897 2.76714C22.7031 2.84198 24.2689 3.17602 25.4778 4.33892C26.9704 5.77815 27.7107 7.65658 27.1077 20.3002C27.042 21.7035 26.7988 22.4649 26.5943 22.973C25.2435 26.3192 22.136 26.7837 8.92684 26.198ZM21.1345 6.79995C21.1345 7.75273 21.936 8.52749 22.9256 8.52749C23.9151 8.52749 24.7181 7.75273 24.7181 6.79995C24.7181 5.84719 23.9151 5.07312 22.9256 5.07312C21.936 5.07312 21.1345 5.84719 21.1345 6.79995ZM7.294 14.4825C7.294 18.5642 10.7254 21.8734 14.9583 21.8734C19.1912 21.8734 22.6226 18.5642 22.6226 14.4825C22.6226 10.4009 19.1912 7.09378 14.9583 7.09378C10.7254 7.09378 7.294 10.4009 7.294 14.4825ZM9.98359 14.4825C9.98359 11.8344 12.2105 9.68579 14.9583 9.68579C17.7061 9.68579 19.933 11.8344 19.933 14.4825C19.933 17.1322 17.7061 19.2814 14.9583 19.2814C12.2105 19.2814 9.98359 17.1322 9.98359 14.4825Z" fill="white"/>
    </g>
    <defs>
        <clipPath id="clip0_1_126">
            <rect width="30" height="29" fill="white"/>
        </clipPath>
    </defs>
</svg>