<svg xmlns="http://www.w3.org/2000/svg" width="37" height="37" viewBox="0 0 37 37" fill="none">
    <path fill-rule="evenodd" clip-rule="evenodd" d="M7.40001 16.65C7.40001 14.1968 8.37456 11.844 10.1093 10.1093C11.844 8.37456 14.1968 7.40001 16.65 7.40001C19.1033 7.40001 21.456 8.37456 23.1908 10.1093C24.9255 11.844 25.9 14.1968 25.9 16.65C25.9 19.1033 24.9255 21.456 23.1908 23.1908C21.456 24.9255 19.1033 25.9 16.65 25.9C14.1968 25.9 11.844 24.9255 10.1093 23.1908C8.37456 21.456 7.40001 19.1033 7.40001 16.65ZM16.65 3.70001C14.5981 3.70001 12.5755 4.18762 10.7489 5.12266C8.92242 6.05769 7.34423 7.41338 6.14443 9.07801C4.94463 10.7426 4.15758 12.6686 3.84812 14.697C3.53867 16.7255 3.71568 18.7985 4.36457 20.7452C5.01345 22.6918 6.11563 24.4564 7.58028 25.8935C9.04494 27.3306 10.8301 28.3991 12.7887 29.011C14.7474 29.6228 16.8233 29.7604 18.8456 29.4125C20.8678 29.0646 22.7785 28.2412 24.42 27.01C24.4726 27.08 24.5301 27.1461 24.5921 27.208L30.1421 32.758C30.491 33.095 30.9583 33.2814 31.4434 33.2772C31.9284 33.273 32.3924 33.0784 32.7354 32.7354C33.0784 32.3924 33.273 31.9284 33.2772 31.4434C33.2814 30.9583 33.095 30.491 32.758 30.1421L27.208 24.5921C27.1461 24.5301 27.08 24.4726 27.01 24.42C28.453 22.496 29.3317 20.2082 29.5477 17.813C29.7637 15.4177 29.3084 13.0097 28.2328 10.8586C27.1573 8.70753 25.504 6.89845 23.4582 5.63408C21.4124 4.36972 19.055 3.70001 16.65 3.70001Z" fill="white"/>
</svg>